<svg id="visual" viewBox="0 0 900 400" width="900" height="400" xmlns="http://www.w3.org/2000/svg" xmlns:xlink="http://www.w3.org/1999/xlink" version="1.1"><rect x="0" y="0" width="900" height="400" fill="#002233"></rect><path d="M0 304L21.5 308C43 312 86 320 128.8 313.7C171.7 307.3 214.3 286.7 257.2 273.5C300 260.3 343 254.7 385.8 264.8C428.7 275 471.3 301 514.2 311.3C557 321.7 600 316.3 642.8 305.3C685.7 294.3 728.3 277.7 771.2 273C814 268.3 857 275.7 878.5 279.3L900 283L900 401L878.5 401C857 401 814 401 771.2 401C728.3 401 685.7 401 642.8 401C600 401 557 401 514.2 401C471.3 401 428.7 401 385.8 401C343 401 300 401 257.2 401C214.3 401 171.7 401 128.8 401C86 401 43 401 21.5 401L0 401Z" fill="#0066FF" stroke-linecap="round" stroke-linejoin="miter"></path></svg>